# xmcd
#
# Track frame offsets:
# 150
# 15649
# 27972
# 47706
# 79282
# 89179
# 99746
# 128285
# 148213
# 163516
#
# Disc length: 2327 seconds
#
#
# Revision: 0
# Processed by: cddbd v1.5.2PL0 Copyright (c) Steve Scherf et al.
# Submitted via: Nero 7, 11, 10, 0 
#
DISCID=8109150a
DTITLE=The Nighthawks - The Nighthawks II
DYEAR=1981
DGENRE=Blues
TTITLE0=Push And Shove
TTITLE1=Jenny Lou
TTITLE2=Weakness
TTITLE3=If You Go
TTITLE4=Don't Start Crying Now
TTITLE5=Destination
TTITLE6=No Secrets
TTITLE7=Metropolitan Avenue
TTITLE8=You Only Fool Yourself
TTITLE9=Guard Your Heart
EXTD=
EXTT0=Push And Shove
EXTT1=Jenny Lou
EXTT2=Weakness
EXTT3=If You Go
EXTT4=Don't Start Crying Now
EXTT5=Destination
EXTT6=No Secrets
EXTT7=Metropolitan Avenue
EXTT8=You Only Fool Yourself
EXTT9=Guard Your Heart
PLAYORDER=
